<svg width="22" height="22" fill="none" xmlns="http://www.w3.org/2000/svg"><path fill-rule="evenodd" clip-rule="evenodd" d="M11.842 20v-7.754h2.653l.398-3.023h-3.05v-1.93c0-.874.246-1.47 1.527-1.47L15 5.822V3.118A22.534 22.534 0 0 0 12.623 3C10.271 3 8.66 4.408 8.66 6.994v2.23H6v3.022h2.66V20h3.182z" fill="#3B5998"/><mask id="a" style="mask-type:alpha" maskUnits="userSpaceOnUse" x="6" y="3" width="9" height="17"><path fill-rule="evenodd" clip-rule="evenodd" d="M11.842 20v-7.754h2.653l.398-3.023h-3.05v-1.93c0-.874.246-1.47 1.527-1.47L15 5.822V3.118A22.534 22.534 0 0 0 12.623 3C10.271 3 8.66 4.408 8.66 6.994v2.23H6v3.022h2.66V20h3.182z" fill="#fff"/></mask></svg>