<svg width="18" height="18" fill="none" xmlns="http://www.w3.org/2000/svg"><path d="M17.627 3.416a4.448 4.448 0 0 0-1.048-1.61A4.447 4.447 0 0 0 14.97.758c-.576-.225-1.244-.38-2.208-.421-.97-.043-1.28-.057-3.754-.057-2.475 0-2.785.007-3.755.057-.97.042-1.631.196-2.208.421a4.447 4.447 0 0 0-1.61 1.048 4.447 4.447 0 0 0-1.048 1.61c-.225.577-.38 1.245-.422 2.208-.042.97-.056 1.28-.056 3.755 0 2.475.007 2.784.056 3.754.043.97.197 1.632.422 2.208a4.447 4.447 0 0 0 1.048 1.61A4.447 4.447 0 0 0 3.044 18c.577.225 1.245.38 2.208.422.97.042 1.28.056 3.755.056 2.475 0 2.784-.007 3.754-.056.97-.042 1.632-.197 2.208-.422a4.447 4.447 0 0 0 1.61-1.048 4.449 4.449 0 0 0 1.048-1.61c.225-.576.38-1.244.422-2.208.042-.97.056-1.28.056-3.754 0-2.475-.007-2.785-.056-3.755-.042-.97-.197-1.631-.422-2.208zm-1.216 9.64c-.043.886-.19 1.371-.317 1.688a2.818 2.818 0 0 1-.682 1.047 2.848 2.848 0 0 1-1.048.682c-.323.127-.801.274-1.687.317-.963.042-1.245.056-3.677.056-2.433 0-2.721-.007-3.678-.056-.886-.043-1.37-.19-1.687-.317a2.818 2.818 0 0 1-1.048-.682 2.848 2.848 0 0 1-.682-1.047c-.126-.324-.274-.802-.316-1.688-.043-.963-.057-1.251-.057-3.677S1.54 6.658 1.59 5.7c.042-.886.19-1.37.316-1.687.162-.422.366-.731.682-1.048a2.848 2.848 0 0 1 1.048-.682c.323-.126.801-.274 1.687-.316.964-.042 1.252-.056 3.678-.056 2.425 0 2.72.007 3.677.056.886.042 1.371.19 1.688.316.421.162.73.366 1.047.682.316.317.513.619.682 1.048.127.323.274.801.316 1.687.043.964.057 1.252.057 3.678s-.014 2.72-.056 3.677z" fill="url(#a)"/><path d="M9 4.703a4.678 4.678 0 0 0-4.676 4.676A4.678 4.678 0 0 0 9 14.055a4.678 4.678 0 0 0 4.676-4.676A4.678 4.678 0 0 0 9 4.703zm0 7.713a3.038 3.038 0 1 1 3.037-3.037A3.043 3.043 0 0 1 9 12.416z" fill="url(#b)"/><path d="M13.858 5.61a1.09 1.09 0 1 0 0-2.18 1.09 1.09 0 0 0 0 2.18z" fill="url(#c)"/><defs><radialGradient id="a" cx="0" cy="0" r="1" gradientUnits="userSpaceOnUse" gradientTransform="translate(5.187 18.44) scale(18.3592)"><stop stop-color="#FFD776"/><stop offset=".246" stop-color="#F3A554"/><stop offset=".379" stop-color="#F15C3C"/><stop offset=".539" stop-color="#D94867"/><stop offset=".7" stop-color="#C32F87"/><stop offset=".912" stop-color="#7D63A7"/><stop offset=".985" stop-color="#5C6CB3"/></radialGradient><radialGradient id="b" cx="0" cy="0" r="1" gradientUnits="userSpaceOnUse" gradientTransform="translate(7.042 14.031) scale(9.4277)"><stop stop-color="#FFD776"/><stop offset=".246" stop-color="#F3A554"/><stop offset=".379" stop-color="#F15C3C"/><stop offset=".607" stop-color="#D94867"/><stop offset=".835" stop-color="#C32F87"/><stop offset=".958" stop-color="#7D63A7"/><stop offset="1" stop-color="#5C6CB3"/></radialGradient><radialGradient id="c" cx="0" cy="0" r="1" gradientUnits="userSpaceOnUse" gradientTransform="translate(13.402 5.605) scale(2.2031)"><stop stop-color="#5F6DB3"/><stop offset="1" stop-color="#5C6CB3"/></radialGradient></defs></svg>