<svg width="18" height="18" viewBox="0 0 18 18" fill="none" xmlns="http://www.w3.org/2000/svg">
<path d="M3.16573 9.60002C2.70598 10.5038 3.22798 10.9358 4.41898 11.6738C5.43148 12.2993 6.83023 12.528 7.72873 12.6195C7.36048 12.9735 9.04798 11.3505 4.18798 16.0253C3.15748 17.013 4.81648 18.5978 5.84623 17.631L8.63398 14.9423C9.70123 15.969 10.7242 16.953 11.4217 17.6348C12.4522 18.6053 14.1105 17.034 13.0912 16.029C13.0147 15.9563 9.31348 12.4058 9.53923 12.6233C10.449 12.5318 11.8267 12.2895 12.8272 11.6775L12.8265 11.6768C14.0175 10.935 14.5395 10.5038 14.0865 9.60002C13.8127 9.08702 13.0747 8.65803 12.0922 9.39977C12.0922 9.39977 10.7655 10.416 8.62573 10.416C6.48523 10.416 5.15923 9.39977 5.15923 9.39977C4.17748 8.65428 3.43648 9.08702 3.16573 9.60002V9.60002Z" fill="#E08641"/>
<path d="M8.73925 9.1065C11.3477 9.1065 13.4777 7.068 13.4777 4.5585C13.4777 2.0385 11.3477 0 8.73925 0C6.13 0 4 2.0385 4 4.5585C4 7.068 6.13 9.1065 8.73925 9.1065ZM8.73925 2.30925C10.021 2.30925 11.0665 3.315 11.0665 4.5585C11.0665 5.7915 10.021 6.79725 8.73925 6.79725C7.4575 6.79725 6.412 5.7915 6.412 4.5585C6.41125 3.31425 7.45675 2.30925 8.73925 2.30925V2.30925Z" fill="#E08641"/>
</svg>
