<svg width="12" height="18" fill="none" xmlns="http://www.w3.org/2000/svg"><path d="M.54 9.66c-.459.905.063 1.336 1.254 2.075 1.013.625 2.411.854 3.31.945l-3.541 3.406c-1.03.988.629 2.573 1.658 1.606l2.788-2.689c1.067 1.027 2.09 2.01 2.788 2.692 1.03.971 2.688-.6 1.67-1.605l-3.553-3.406c.91-.091 2.288-.334 3.288-.946 1.19-.742 1.713-1.173 1.26-2.077-.274-.513-1.012-.942-1.995-.2 0 0-1.326 1.016-3.466 1.016S2.534 9.46 2.534 9.46c-.981-.746-1.722-.313-1.993.2z" fill="#E08641"/><path d="M6.001 9.106c2.609 0 4.738-2.038 4.738-4.548C10.74 2.038 8.61 0 6.001 0c-2.61 0-4.74 2.038-4.74 4.558 0 2.51 2.13 4.548 4.74 4.548zm0-6.797c1.282 0 2.327 1.006 2.327 2.25 0 1.232-1.045 2.238-2.327 2.238S3.674 5.791 3.674 4.558C3.673 3.314 4.718 2.31 6 2.31z" fill="#E08641"/></svg>