<svg width="19" height="11" fill="none" xmlns="http://www.w3.org/2000/svg"><path fill-rule="evenodd" clip-rule="evenodd" d="M16.352 6.837c.63.615 1.296 1.194 1.86 1.871.25.301.487.612.668.961.256.497.024 1.043-.421 1.073l-2.768-.001c-.714.06-1.284-.228-1.763-.716-.383-.39-.738-.806-1.106-1.21a2.622 2.622 0 0 0-.498-.442c-.378-.246-.706-.17-.922.223-.22.401-.27.845-.291 1.292-.03.652-.227.823-.882.853-1.399.066-2.727-.146-3.96-.852-1.088-.622-1.931-1.5-2.666-2.495C2.174 5.458 1.08 3.33.096 1.142-.125.65.036.385.58.375a75.123 75.123 0 0 1 2.71 0c.367.004.61.215.752.562A16.798 16.798 0 0 0 5.879 4.34c.2.282.403.564.693.763.321.22.566.147.717-.21.096-.228.137-.472.16-.715.07-.835.08-1.67-.045-2.502-.077-.52-.37-.856-.889-.954-.264-.05-.225-.148-.097-.3.223-.26.432-.422.85-.422h3.127c.493.097.602.318.67.814l.002 3.475c-.005.192.096.76.442.888.276.09.459-.131.624-.306.75-.795 1.284-1.735 1.762-2.708.212-.427.394-.871.57-1.315.131-.33.337-.492.707-.485l3.011.003c.09 0 .18.001.266.016.508.087.647.305.49.8-.247.778-.727 1.425-1.197 2.076-.502.695-1.039 1.366-1.537 2.065-.457.638-.421.96.147 1.514z" fill="#597DA3"/></svg>