<svg width="18" height="18" fill="none" xmlns="http://www.w3.org/2000/svg"><path d="m16.841 4.649-.086-.149A9.003 9.003 0 0 0 8.966 0a9.003 9.003 0 0 0-7.789 4.5l-.086.149A8.935 8.935 0 0 0 0 8.25v1.5a8.932 8.932 0 0 0 1.091 3.6l.086.15a9.003 9.003 0 0 0 7.79 4.5 9.003 9.003 0 0 0 7.788-4.5l.086-.15a8.93 8.93 0 0 0 1.091-3.6v-1.5a8.931 8.931 0 0 0-1.09-3.601zm-3.39 3.601A17.838 17.838 0 0 0 13.228 6h2.607c.308.701.514 1.457.593 2.25h-2.977zM8.966 16.5c-.848 0-1.753-1.155-2.345-3h4.691c-.592 1.845-1.498 3-2.346 3zM6.24 12a15.764 15.764 0 0 1-.256-2.25h5.965c-.035.8-.124 1.555-.256 2.25H6.24zm-.256-3.75c.034-.8.124-1.555.256-2.25h5.453c.132.695.221 1.45.256 2.25H5.984zM8.966 1.5c.848 0 1.754 1.156 2.346 3H6.62c.592-1.844 1.497-3 2.345-3zm5.986 3H12.9c-.253-.915-.583-1.721-.976-2.39a7.537 7.537 0 0 1 3.028 2.39zM6.009 2.11c-.393.669-.724 1.475-.977 2.39H2.981a7.537 7.537 0 0 1 3.028-2.39zM2.097 6h2.608a17.896 17.896 0 0 0-.223 2.25H1.504c.08-.793.285-1.549.593-2.25zm2.385 3.75c.03.788.105 1.541.223 2.25H2.097a7.434 7.434 0 0 1-.592-2.25h2.977zM2.98 13.5h2.051c.253.915.584 1.721.976 2.39a7.539 7.539 0 0 1-3.027-2.39zm8.943 2.39c.393-.669.723-1.475.976-2.39h2.052a7.533 7.533 0 0 1-3.028 2.39zM15.836 12h-2.608c.117-.709.194-1.462.223-2.25h2.978a7.447 7.447 0 0 1-.593 2.25z" fill="#6A6E72"/></svg>